# xmcd
#
# Track frame offsets:
#  151
#  8650
#  21299
#  38086
#  48821
#  62246
#  69449
#  80362
#  91019
#  101000
#  110779
#  122106
#  129789
#  141660
#  153195
#  164410
#  178103
#  190026
#  202213
#  213270
#  228181
#  240922
#  252181
#  263340
#  275039
#  286492
#  298379
#  310118
#  322269
#
# Disc length: 4449 seconds
#
# Revision: 0
# Processed by: cddbd v1.5.2PL0 Copyright (c) Steve Scherf et al.
# Submitted via: Collectorz.com_Music_Collector 6.11
#
DISCID=a2115f1d
DTITLE=Dee, Lenny - Lenny Dee/The Lenny Dee Tour (vinyl LP)
DYEAR=1900
DGENRE=Instrumental
TTITLE0=Calcutta
TTITLE1=I Left My Heart In San Francisco
TTITLE2=Granada
TTITLE3=Sikiyaki
TTITLE4=Shangrila
TTITLE5=Poor People Of Paris
TTITLE6=A Walk In The Black Forest
TTITLE7=Arriverderci Roma
TTITLE8=A Foggy day
TTITLE9=Fly Me To The Moon
TTITLE10=Hawaiian Wedding Song
TTITLE11=Kerry dancers
TTITLE12=The Most Beautiful Girl
TTITLE13=Paper Roses
TTITLE14=Behind Closed Doors
TTITLE15=Rhapsody In Blue
TTITLE16=Why me
TTITLE17=Top Of The World
TTITLE18=Leave Me Alone
TTITLE19=Time In a Bottle
TTITLE20=Until You Come Back To Me
TTITLE21=Satin Sheets
TTITLE22=You're 16
TTITLE23=Rock Your Baby
TTITLE24=Feel Like Makni' Love
TTITLE25=Annie's Song
TTITLE26=The Entertainer
TTITLE27=I Honestly Love You
TTITLE28=I'm Leaving It All Up To You
EXTD=
EXTT0=
EXTT1=
EXTT2=
EXTT3=
EXTT4=
EXTT5=
EXTT6=
EXTT7=
EXTT8=
EXTT9=
EXTT10=
EXTT11=
EXTT12=
EXTT13=
EXTT14=
EXTT15=
EXTT16=
EXTT17=
EXTT18=
EXTT19=
EXTT20=
EXTT21=
EXTT22=
EXTT23=
EXTT24=
EXTT25=
EXTT26=
EXTT27=
EXTT28=
PLAYORDER=
